<svg id="Layer_3" height="512" viewBox="0 0 64 64" width="512" xmlns="http://www.w3.org/2000/svg" data-name="Layer 3"><path d="m2 22h60v40h-60z" fill="#f6b940"/><path d="m2 22 26.427 20.764a5.781 5.781 0 0 0 3.573 1.236 5.781 5.781 0 0 0 3.573-1.236l26.427-20.764" fill="#f9d266"/><path d="m2 62 26.879-18.915a5.784 5.784 0 0 0 3.121.915 5.784 5.784 0 0 0 3.121-.915l26.879 18.915z" fill="#f0ae42"/><circle cx="32" cy="17" fill="#4d8c28" r="15"/><path d="m44 15a14.957 14.957 0 0 0 -5.243-11.379 14.987 14.987 0 0 0 -16.514 24.758 14.979 14.979 0 0 0 21.757-13.379z" fill="#559b2d"/><path d="m31.5 6a9.511 9.511 0 0 0 -9.5 9.5 10.512 10.512 0 0 0 10.5 10.5h4.5v-2h-4.5a8.51 8.51 0 0 1 -8.5-8.5 7.5 7.5 0 0 1 15 0v2.5a2 2 0 0 1 -2 2 1 1 0 0 1 -1-1v-9h-2v1.25a4.4 4.4 0 0 0 -1.415-.25h-.585a5 5 0 0 0 0 10h.586a4.37 4.37 0 0 0 1.869-.43 2.993 2.993 0 0 0 2.545 1.43 4 4 0 0 0 4-4v-2.5a9.511 9.511 0 0 0 -9.5-9.5zm.5 13a3 3 0 0 1 0-6h.585a2.4 2.4 0 0 1 1.415.466v5.068a2.4 2.4 0 0 1 -1.414.466z" fill="#f2f2f2"/></svg>